<?xml version="1.0" encoding="UTF-8"?> <!-- Generator: Adobe Illustrator 17.1.0, SVG Export Plug-In . SVG Version: 6.00 Build 0) --> <svg xmlns="http://www.w3.org/2000/svg" xmlns:xlink="http://www.w3.org/1999/xlink" version="1.1" id="Layer_1" x="0px" y="0px" viewBox="0 276.5 841.9 318.7" xml:space="preserve"> <g> <g> <g> <rect y="505.5" fill="#31C5F3" width="216.9" height="27.1"></rect> </g> <g> <rect y="559.7" fill="#31C5F3" width="216.9" height="27.1"></rect> </g> <path fill="#005798" d="M82.7,279h51.8L217,474.3h-57.6l-14.1-34.6H70.5l-13.9,34.6H0.2L82.7,279z M129.8,397.9l-21.6-55.1 l-21.9,55.1L129.8,397.9L129.8,397.9z"></path> <path fill="#005798" d="M307,279h51.8l82.5,195.3h-57.6l-14.1-34.6h-74.8l-13.9,34.6h-56.5L307,279z M354.1,397.9l-21.6-55.1 l-21.9,55.1L354.1,397.9L354.1,397.9z"></path> <path fill="#005798" d="M432.8,377.9v-0.6c0-55.6,44.9-100.8,104.6-100.8c59.8,0,104.2,44.6,104.2,100.3v0.6 c0,55.6-44.9,100.8-104.6,100.8C477,478.2,432.8,433.6,432.8,377.9 M586.7,377.9v-0.6c0-28-20.2-52.3-49.8-52.3 c-29.3,0-49,23.8-49,51.8v0.6c0,28,20.2,52.3,49.6,52.3C567,429.7,586.7,405.9,586.7,377.9"></path> <path fill="#005798" d="M655.9,377.9v-0.6c0-56.5,43.5-100.8,102.2-100.8c39.6,0,65.1,16.6,82.2,40.4l-40.4,31.3 c-11-13.9-23.8-22.7-42.4-22.7c-27.2,0-46.2,23-46.2,51.2v0.6c0,29.1,19.2,51.8,46.2,51.8c20.2,0,32.1-9.4,43.8-23.5l40.4,28.8 c-18.2,25.2-42.9,43.8-85.8,43.8C700.5,478.2,655.9,435.8,655.9,377.9"></path> <path fill="#005798" d="M251.8,505.6h5.3l14.3,32.8h-6.1l-3.3-7.8h-15.4l-3.3,7.8h-5.9L251.8,505.6z M260,525.5l-5.7-13l-5.6,13 H260z"></path> <path fill="#005798" d="M273.9,533.6l3.5-4.1c3.1,2.7,6.2,4.2,10.3,4.2c3.5,0,5.8-1.6,5.8-4.1v-0.1c0-2.3-1.3-3.5-7.4-4.9 c-6.9-1.7-10.9-3.7-10.9-9.8v-0.1c0-5.6,4.7-9.5,11.2-9.5c4.7,0,8.5,1.5,11.8,4.1l-3.1,4.3c-2.9-2.2-5.9-3.3-8.8-3.3 c-3.4,0-5.3,1.7-5.3,3.9v0.1c0,2.5,1.5,3.6,7.7,5.1c6.9,1.7,10.5,4.1,10.5,9.5v0.1c0,6.1-4.8,9.7-11.7,9.7 C282.6,538.9,277.8,537.2,273.9,533.6"></path> <path fill="#005798" d="M303.6,522.2L303.6,522.2c0-9.3,7.1-16.9,17-16.9c10,0,17,7.6,17,16.7v0.1c0,9.2-7.1,16.8-17.1,16.8 C310.6,538.9,303.6,531.4,303.6,522.2 M331.6,522.2L331.6,522.2c0-6.4-4.6-11.7-11.1-11.7c-6.4,0-11,5.2-11,11.5v0.1 c0,6.4,4.6,11.6,11.1,11.6C327.1,533.7,331.6,528.5,331.6,522.2"></path> <path fill="#005798" d="M342.2,522.2L342.2,522.2c0-9.3,6.9-16.9,16.8-16.9c6,0,9.6,2.1,12.7,5l-3.7,4.2c-2.6-2.4-5.4-4-9.1-4 c-6.3,0-10.7,5.1-10.7,11.5v0.1c0,6.4,4.5,11.6,10.7,11.6c4,0,6.6-1.6,9.3-4.2l3.7,3.7c-3.4,3.5-7.1,5.7-13.2,5.7 C349.2,538.9,342.2,531.6,342.2,522.2"></path> <rect x="377.4" y="505.8" fill="#005798" width="5.7" height="32.6"></rect> <path fill="#005798" d="M402.4,505.6h5.3l14.4,32.8H416l-3.3-7.8h-15.4l-3.3,7.8h-5.9L402.4,505.6z M410.6,525.5l-5.7-13l-5.6,13 H410.6z"></path> <path fill="#005798" d="M425.3,522.2L425.3,522.2c0-9.3,6.9-16.9,16.8-16.9c6,0,9.6,2.1,12.8,5l-3.7,4.2c-2.6-2.4-5.4-4-9.1-4 c-6.2,0-10.7,5.1-10.7,11.5v0.1c0,6.4,4.5,11.6,10.7,11.6c4,0,6.6-1.6,9.4-4.2l3.7,3.7c-3.5,3.5-7.1,5.7-13.2,5.7 C432.3,538.9,425.3,531.6,425.3,522.2"></path> <rect x="460.5" y="505.8" fill="#005798" width="5.7" height="32.6"></rect> <path fill="#005798" d="M472.5,522.2L472.5,522.2c0-9.3,7.1-16.9,17.1-16.9s17,7.6,17,16.8v0.1c0,9.2-7.1,16.8-17.1,16.8 C479.5,538.9,472.5,531.4,472.5,522.2 M500.6,522.2L500.6,522.2c0-6.4-4.6-11.7-11-11.7c-6.4,0-11,5.2-11,11.5v0.1 c0,6.3,4.6,11.6,11,11.6C496,533.7,500.6,528.5,500.6,522.2 M492.4,495.5l5.1,2.3l-5.7,5.4h-4.4L492.4,495.5z"></path> <polygon fill="#005798" points="512.6,505.8 517.9,505.8 535.3,528.4 535.3,505.8 540.9,505.8 540.9,538.4 536.1,538.4 518.2,515.2 518.2,538.4 512.6,538.4 "></polygon> <path fill="#005798" d="M573,505.6h5.3l14.4,32.8h-6l-3.3-7.8H568l-3.3,7.8h-5.9L573,505.6z M581.2,525.5l-5.7-13l-5.6,13H581.2z"></path> <path fill="#005798" d="M597.3,505.8h14.5c4.1,0,7.3,1.2,9.4,3.3c1.8,1.8,2.7,4.2,2.7,7v0.1c0,5.3-3.2,8.6-7.8,9.9l8.8,12.3h-6.8 l-8-11.4H610h-7.1v11.4h-5.7L597.3,505.8L597.3,505.8z M611.4,522c4.1,0,6.6-2.1,6.6-5.4v-0.1c0-3.5-2.5-5.4-6.7-5.4H603v11 L611.4,522L611.4,522z"></path> <path fill="#005798" d="M628.5,522.2L628.5,522.2c0-9.2,7-16.9,16.8-16.9c5.7,0,9.2,1.6,12.5,4.4l-3.6,4.3c-2.5-2.1-5-3.5-9.1-3.5 c-6,0-10.5,5.2-10.5,11.5v0.1c0,6.7,4.4,11.6,11.1,11.6c3,0,5.9-1,7.8-2.4v-6.1h-8.3v-5H659v13.6c-3.3,2.8-7.8,5.1-13.6,5.1 C635.3,538.9,628.5,531.7,628.5,522.2"></path> <polygon fill="#005798" points="665.5,505.8 689.7,505.8 689.7,510.9 671.3,510.9 671.3,519.4 687.6,519.4 687.6,524.5 671.3,524.5 671.3,533.3 689.9,533.3 689.9,538.4 665.5,538.4 "></polygon> <polygon fill="#005798" points="695.8,505.8 701.1,505.8 718.5,528.4 718.5,505.8 724.2,505.8 724.2,538.4 719.4,538.4 701.4,515.2 701.4,538.4 695.8,538.4 "></polygon> <polygon fill="#005798" points="739.6,511.1 729.3,511.1 729.3,505.8 755.7,505.8 755.7,511.1 745.4,511.1 745.4,538.4 739.6,538.4 "></polygon> <rect x="761.2" y="505.8" fill="#005798" width="5.7" height="32.6"></rect> <polygon fill="#005798" points="774.7,505.8 780,505.8 797.5,528.4 797.5,505.8 803,505.8 803,538.4 798.3,538.4 780.3,515.2 780.3,538.4 774.7,538.4 "></polygon> <path fill="#005798" d="M822.1,505.6h5.3l14.4,32.8h-6l-3.3-7.8H817l-3.4,7.8h-5.9L822.1,505.6z M830.3,525.5l-5.7-13l-5.6,13 H830.3z"></path> <path fill="#005798" d="M240.3,554.2h12.2c10.3,0,17.3,7.1,17.3,16.2v0.1c0,9.2-7.1,16.3-17.3,16.3h-12.2L240.3,554.2L240.3,554.2 z M252.5,581.6c6.9,0,11.3-4.6,11.3-11v-0.1c0-6.4-4.5-11.1-11.3-11.1H246v22.1h6.5V581.6z"></path> <polygon fill="#005798" points="276.8,554.2 301,554.2 301,559.3 282.6,559.3 282.6,567.8 298.9,567.8 298.9,572.9 282.6,572.9 282.6,581.6 301.2,581.6 301.2,586.7 276.8,586.7 "></polygon> <path fill="#005798" d="M321.3,570.5L321.3,570.5c0-9.3,7.1-16.9,17.1-16.9c10,0,17,7.6,17,16.8v0.1c0,9.1-7.1,16.8-17,16.8 C328.3,587.4,321.3,579.7,321.3,570.5 M349.4,570.5L349.4,570.5c0-6.4-4.6-11.7-11.1-11.7c-6.4,0-11,5.2-11,11.5v0.1 c0,6.3,4.7,11.6,11.1,11.6C344.9,582.1,349.4,576.9,349.4,570.5"></path> <polygon fill="#005798" points="362.5,554.2 367.8,554.2 385.2,576.7 385.2,554.2 390.9,554.2 390.9,586.7 386.1,586.7 368.1,563.6 368.1,586.7 362.5,586.7 "></polygon> <path fill="#005798" d="M398,570.5L398,570.5c0-9.3,6.9-16.9,16.8-16.9c6,0,9.6,2.1,12.7,5l-3.7,4.2c-2.6-2.4-5.4-4.1-9.1-4.1 c-6.2,0-10.7,5.2-10.7,11.5v0.1c0,6.4,4.5,11.6,10.7,11.6c4,0,6.6-1.6,9.3-4.2l3.7,3.7c-3.4,3.5-7.1,5.8-13.2,5.8 C405.1,587.4,398,579.9,398,570.5"></path> <path fill="#005798" d="M432.5,570.5L432.5,570.5c0-9.3,7.1-16.9,17.1-16.9s17,7.6,17,16.8v0.1c0,9.1-7.1,16.8-17,16.8 C439.5,587.4,432.5,579.7,432.5,570.5 M460.6,570.5L460.6,570.5c0-6.4-4.6-11.7-11.1-11.7c-6.4,0-11,5.2-11,11.5v0.1 c0,6.3,4.6,11.6,11,11.6C456.1,582.1,460.6,576.9,460.6,570.5"></path> <polygon fill="#005798" points="473.8,554.2 479.5,554.2 479.5,581.6 496.6,581.6 496.6,586.7 473.8,586.7 "></polygon> <path fill="#005798" d="M501.3,570.5L501.3,570.5c0-9.3,7.1-16.9,17-16.9c10,0,17,7.6,17,16.8v0.1c0,9.1-7.1,16.8-17,16.8 C508.3,587.4,501.3,579.7,501.3,570.5 M529.3,570.5L529.3,570.5c0-6.4-4.7-11.7-11.1-11.7s-11,5.2-11,11.5v0.1 c0,6.3,4.6,11.6,11,11.6C524.9,582.1,529.3,576.9,529.3,570.5"></path> <path fill="#005798" d="M541.1,570.5L541.1,570.5c0-9.2,7-16.9,16.8-16.9c5.7,0,9.1,1.6,12.5,4.4l-3.7,4.3 c-2.5-2.1-4.9-3.5-9.1-3.5c-5.9,0-10.5,5.2-10.5,11.5v0.1c0,6.7,4.4,11.6,11,11.6c3,0,5.9-1,7.9-2.5v-6.1h-8.3v-4.9h13.9v13.7 c-3.3,2.8-7.8,5.1-13.6,5.1C547.7,587.4,541.1,580.1,541.1,570.5"></path> <path fill="#005798" d="M579.5,554.2h5.7v32.6h-5.7V554.2z M584.9,543.9l5.1,2.3l-5.7,5.3h-4.4L584.9,543.9z"></path> <path fill="#005798" d="M605.6,553.9h5.3l14.3,32.8h-6l-3.3-7.8h-15.5l-3.3,7.8h-5.9L605.6,553.9z M613.8,573.8l-5.7-13l-5.6,13 H613.8z"></path> <path fill="#005798" d="M644.1,570.5L644.1,570.5c0-9.3,6.9-16.9,16.8-16.9c6,0,9.6,2.1,12.7,5l-3.7,4.2c-2.6-2.4-5.4-4.1-9.1-4.1 c-6.2,0-10.7,5.2-10.7,11.5v0.1c0,6.4,4.5,11.6,10.7,11.6c4,0,6.6-1.6,9.3-4.2l3.7,3.7c-3.5,3.5-7.1,5.8-13.2,5.8 C651.2,587.4,644.1,579.9,644.1,570.5"></path> <polygon fill="#005798" points="680.1,554.2 685.8,554.2 685.8,581.6 702.9,581.6 702.9,586.7 680.1,586.7 "></polygon> <path fill="#005798" d="M709.4,554.2h5.7v32.6h-5.7V554.2z M714.9,543.9l5.2,2.3l-5.7,5.3H710L714.9,543.9z"></path> <polygon fill="#005798" points="724.1,554.2 729.4,554.2 746.8,576.7 746.8,554.2 752.4,554.2 752.4,586.7 747.6,586.7 729.7,563.6 729.7,586.7 724.1,586.7 "></polygon> <rect x="761.3" y="554.2" fill="#005798" width="5.7" height="32.6"></rect> <path fill="#005798" d="M774.5,570.5L774.5,570.5c0-9.3,6.9-16.9,16.8-16.9c6,0,9.6,2.1,12.7,5l-3.7,4.2c-2.6-2.4-5.4-4.1-9.1-4.1 c-6.3,0-10.8,5.2-10.8,11.5v0.1c0,6.4,4.5,11.6,10.8,11.6c4,0,6.5-1.6,9.3-4.2l3.7,3.7c-3.4,3.5-7.1,5.8-13.2,5.8 C781.5,587.4,774.5,579.9,774.5,570.5"></path> <path fill="#005798" d="M822.1,553.9h5.3l14.4,32.8h-6l-3.3-7.8H817l-3.4,7.8h-5.9L822.1,553.9z M830.3,573.8l-5.6-13l-5.6,13 H830.3z"></path> </g> </g> </svg> 