<?xml version="1.0" encoding="UTF-8"?><svg id="Capa_1" xmlns="http://www.w3.org/2000/svg" viewBox="0 0 312 74"><polygon points="223.72 26.62 226.61 26.62 226.61 25.82 223.72 25.82 223.72 23.65 227.06 23.65 227.06 22.85 222.75 22.85 222.75 29.58 223.72 29.58 223.72 26.62" fill="#fff" stroke-width="0"/><path d="M229.09,29.37c.38.2.88.29,1.47.29s1.09-.1,1.47-.29c.38-.2.66-.49.84-.89.18-.4.27-.9.27-1.52v-4.11h-.95v4.21c0,.62-.13,1.08-.4,1.37-.26.29-.68.43-1.24.43s-.97-.14-1.24-.43c-.27-.29-.4-.74-.4-1.37v-4.21h-.96v4.11c0,.62.09,1.12.28,1.52.19.4.47.7.85.89Z" fill="#fff" stroke-width="0"/><polygon points="235.46 24.3 238.91 29.58 239.9 29.58 239.9 22.85 238.99 22.85 238.99 28.13 235.53 22.85 234.55 22.85 234.55 29.58 235.46 29.58 235.46 24.3" fill="#fff" stroke-width="0"/><path d="M242.47,29.63c.18,0,.36.01.53.01.82,0,1.49-.12,2.04-.36.54-.24.95-.61,1.22-1.12.27-.5.41-1.15.41-1.95,0-1.17-.29-2.04-.87-2.6-.58-.56-1.45-.84-2.59-.84-.21,0-.42,0-.63.03-.21.02-.43.04-.64.07-.21.03-.41.06-.61.1v6.57c.2.02.4.04.59.06.19.01.37.02.55.03ZM242.3,23.66c.16-.03.32-.05.48-.06.16-.01.32-.02.47-.02.54,0,.99.09,1.35.27.36.18.63.47.81.85.18.39.27.89.27,1.5s-.09,1.13-.27,1.52c-.18.39-.45.67-.82.84-.36.18-.82.27-1.37.27-.17,0-.34,0-.48-.01s-.29-.02-.44-.04v-5.12Z" fill="#fff" stroke-width="0"/><path d="M248.89,27.52h2.74l.7,2.06h.97l-2.35-6.73h-1.37l-2.35,6.73h.96l.7-2.06ZM250.26,23.48l1.1,3.24h-2.2l1.1-3.24Z" fill="#fff" stroke-width="0"/><path d="M254.72,28.88c.28.27.61.47,1.01.6.39.13.83.19,1.33.19.28,0,.55-.02.8-.07s.5-.1.72-.17v-.82c-.25.08-.49.15-.73.18-.23.04-.47.06-.72.06-.48,0-.89-.08-1.23-.25-.34-.16-.59-.44-.77-.83-.18-.39-.26-.91-.26-1.57s.09-1.15.26-1.54c.18-.39.44-.66.78-.84.34-.17.76-.26,1.26-.26.24,0,.48.02.71.05.23.03.46.08.68.14v-.82c-.23-.06-.46-.11-.7-.14-.24-.03-.49-.05-.74-.05-.69,0-1.27.12-1.76.37-.49.25-.86.62-1.12,1.13-.26.51-.39,1.17-.39,1.97,0,.62.07,1.15.22,1.59.15.44.36.79.64,1.06Z" fill="#fff" stroke-width="0"/><rect x="259.49" y="22.85" width=".97" height="6.73" fill="#fff" stroke-width="0"/><polygon points="265.93 20.96 264.91 20.96 264.1 22.28 264.96 22.28 265.93 20.96" fill="#fff" stroke-width="0"/><path d="M263,29.31c.44.24.95.36,1.53.36s1.09-.12,1.52-.37.78-.62,1.02-1.13c.24-.51.36-1.16.36-1.96s-.12-1.45-.36-1.96c-.24-.51-.58-.88-1.01-1.13-.44-.24-.95-.37-1.53-.37s-1.1.12-1.53.36c-.44.24-.78.62-1.02,1.13-.24.51-.36,1.16-.36,1.96s.12,1.46.36,1.96c.24.51.58.88,1.02,1.13ZM262.85,24.65c.16-.38.38-.66.67-.83.29-.17.62-.25,1.01-.25s.72.09,1.01.26c.29.17.51.45.67.85.16.39.24.91.24,1.57s-.08,1.15-.24,1.53c-.16.38-.38.66-.67.83-.29.17-.63.26-1.01.26s-.73-.09-1.02-.26c-.29-.17-.51-.45-.67-.84-.16-.39-.24-.92-.24-1.57s.08-1.15.24-1.54Z" fill="#fff" stroke-width="0"/><polygon points="269.52 24.3 272.98 29.58 273.96 29.58 273.96 22.85 273.05 22.85 273.05 28.13 269.59 22.85 268.61 22.85 268.61 29.58 269.52 29.58 269.52 24.3" fill="#fff" stroke-width="0"/><path d="M278.23,28.88c.28.27.61.47,1.01.6.39.13.83.19,1.33.19.28,0,.55-.02.8-.07.26-.04.5-.1.72-.17v-.82c-.25.08-.49.15-.73.18-.23.04-.47.06-.72.06-.48,0-.89-.08-1.22-.25-.34-.16-.59-.44-.77-.83-.18-.39-.26-.91-.26-1.57s.09-1.15.26-1.54c.18-.39.44-.66.78-.84.34-.17.76-.26,1.26-.26.24,0,.48.02.71.05.23.03.46.08.68.14v-.82c-.23-.06-.46-.11-.7-.14-.24-.03-.49-.05-.74-.05-.69,0-1.27.12-1.76.37-.49.25-.86.62-1.12,1.13-.26.51-.39,1.17-.39,1.97,0,.62.07,1.15.22,1.59.15.44.36.79.64,1.06Z" fill="#fff" stroke-width="0"/><polygon points="286.82 20.96 285.8 20.96 284.99 22.28 285.85 22.28 286.82 20.96" fill="#fff" stroke-width="0"/><path d="M286.79,27.52l.7,2.06h.97l-2.35-6.73h-1.37l-2.35,6.73h.96l.7-2.06h2.74ZM285.42,23.48l1.1,3.24h-2.2l1.1-3.24Z" fill="#fff" stroke-width="0"/><polygon points="293.73 28.13 290.27 22.85 289.29 22.85 289.29 29.58 290.2 29.58 290.2 24.3 293.65 29.58 294.64 29.58 294.64 22.85 293.73 22.85 293.73 28.13" fill="#fff" stroke-width="0"/><path d="M299.07,22.76c-.69,0-1.27.12-1.76.37-.49.25-.86.62-1.12,1.13-.26.51-.39,1.17-.39,1.97,0,.62.07,1.15.22,1.59.15.44.36.79.64,1.06.28.27.61.47,1.01.6.39.13.83.19,1.33.19.28,0,.55-.02.8-.07s.5-.1.72-.17v-.82c-.25.08-.49.15-.73.18-.23.04-.47.06-.72.06-.48,0-.89-.08-1.22-.25-.34-.16-.59-.44-.77-.83-.18-.39-.26-.91-.26-1.57s.09-1.15.26-1.54c.18-.39.44-.66.78-.84.34-.17.76-.26,1.26-.26.24,0,.48.02.71.05.23.03.46.08.68.14v-.82c-.23-.06-.46-.11-.7-.14-.24-.03-.49-.05-.74-.05Z" fill="#fff" stroke-width="0"/><polygon points="302.38 26.53 305.32 26.53 305.32 25.73 302.38 25.73 302.38 23.64 305.77 23.64 305.77 22.85 301.43 22.85 301.43 29.58 305.81 29.58 305.81 28.79 302.38 28.79 302.38 26.53" fill="#fff" stroke-width="0"/><path d="M312,29.58l-2.1-2.84c.1-.03.21-.04.3-.08.41-.16.73-.39.95-.69.22-.31.32-.69.32-1.15,0-.7-.23-1.22-.68-1.55-.45-.33-1.13-.49-2.04-.49-.24,0-.47,0-.69.02-.22.02-.43.04-.63.07-.2.03-.39.06-.57.1v6.61h.95v-2.72c.14,0,.28.01.41.02.13,0,.28.01.45.01.1,0,.17-.01.26-.02l1.98,2.7h1.08ZM308.1,26.13c-.09,0-.19-.02-.3-.03v-2.5c.16-.03.31-.05.47-.06.16-.02.34-.03.54-.03.4,0,.73.05.99.13.25.09.44.23.56.42.12.19.18.44.18.75,0,.45-.15.78-.44,1-.29.21-.77.32-1.43.32-.11,0-.21,0-.31,0-.09,0-.18,0-.27-.02Z" fill="#fff" stroke-width="0"/><rect x="222.75" y="32.53" width=".97" height="6.73" fill="#fff" stroke-width="0"/><polygon points="226.13 32.53 225.15 32.53 225.15 39.26 226.06 39.26 226.06 33.98 229.52 39.26 230.5 39.26 230.5 32.53 229.59 32.53 229.59 37.81 226.13 32.53" fill="#fff" stroke-width="0"/><polygon points="232.27 32.53 231.26 32.53 233.58 39.26 235 39.26 237.33 32.53 236.38 32.53 234.32 38.53 232.27 32.53" fill="#fff" stroke-width="0"/><polygon points="242.42 33.32 242.42 32.53 238.08 32.53 238.08 39.26 242.46 39.26 242.46 38.46 239.04 38.46 239.04 36.21 241.97 36.21 241.97 35.41 239.04 35.41 239.04 33.32 242.42 33.32" fill="#fff" stroke-width="0"/><path d="M244.75,33.37c.23-.09.54-.13.91-.13.25,0,.5.02.76.05.25.03.49.09.72.16v-.81c-.21-.06-.44-.11-.7-.15-.26-.04-.53-.05-.8-.05-.84,0-1.47.17-1.89.51-.42.34-.63.81-.63,1.41,0,.49.15.89.44,1.19.29.3.72.53,1.3.67l.41.11c.45.12.77.26.95.42.18.16.28.39.28.7,0,.36-.12.63-.37.81-.24.19-.63.28-1.15.28-.18,0-.36-.01-.56-.03-.2-.02-.39-.05-.59-.1-.2-.04-.39-.09-.58-.16v.81c.27.09.55.16.85.21.3.05.59.07.87.07.53,0,.98-.08,1.35-.23.37-.15.66-.38.85-.67.19-.29.29-.64.29-1.06,0-.33-.07-.62-.2-.86-.13-.24-.33-.45-.6-.61-.27-.17-.62-.31-1.04-.41l-.41-.1c-.42-.11-.71-.25-.88-.41-.17-.16-.25-.39-.25-.67,0-.22.05-.41.16-.57.11-.16.28-.28.51-.37Z" fill="#fff" stroke-width="0"/><polygon points="250.99 39.26 250.99 33.35 253.19 33.35 253.19 32.53 247.81 32.53 247.81 33.35 250.02 33.35 250.02 39.26 250.99 39.26" fill="#fff" stroke-width="0"/><rect x="253.97" y="32.53" width=".97" height="6.73" fill="#fff" stroke-width="0"/><path d="M260.44,39.29c.25-.02.52-.06.8-.1v-3.2h-.91v2.49s-.08.01-.12.02c-.19.02-.39.03-.59.03-.55,0-1.01-.09-1.39-.27-.37-.18-.65-.46-.84-.84-.18-.38-.28-.88-.28-1.49,0-.65.1-1.16.3-1.55s.48-.67.85-.84c.37-.17.83-.26,1.37-.26.23,0,.46.01.7.05.23.03.48.08.74.15v-.82c-.25-.06-.49-.11-.75-.14-.25-.03-.51-.05-.76-.05-.72,0-1.34.12-1.85.37-.52.24-.91.62-1.19,1.13-.28.51-.41,1.17-.41,1.97s.13,1.43.4,1.94c.27.51.67.88,1.2,1.12.53.24,1.19.36,1.97.36.26,0,.51-.01.76-.03Z" fill="#fff" stroke-width="0"/><path d="M267.1,39.26h.97l-2.35-6.73h-1.37l-2.35,6.73h.96l.7-2.07h2.74l.7,2.07ZM263.93,36.4l1.1-3.24,1.1,3.24h-2.2Z" fill="#fff" stroke-width="0"/><path d="M270.68,33.52c.34-.17.76-.26,1.26-.26.24,0,.48.01.71.05.23.03.46.08.68.14v-.82c-.23-.06-.46-.11-.7-.14-.24-.03-.49-.05-.74-.05-.69,0-1.27.12-1.76.37-.49.25-.86.62-1.12,1.13-.26.51-.39,1.16-.39,1.97,0,.62.07,1.15.22,1.59.15.44.36.79.64,1.06.28.27.61.47,1.01.6.39.13.83.19,1.33.19.28,0,.55-.02.8-.07.26-.04.5-.1.72-.17v-.82c-.25.09-.49.15-.73.19-.23.04-.47.06-.72.06-.48,0-.89-.08-1.22-.25-.34-.16-.59-.44-.77-.82-.18-.39-.26-.91-.26-1.57s.09-1.15.26-1.54c.18-.39.44-.66.78-.84Z" fill="#fff" stroke-width="0"/><rect x="274.25" y="32.53" width=".97" height="6.73" fill="#fff" stroke-width="0"/><polygon points="278.86 31.96 279.73 31.96 280.69 30.64 279.68 30.64 278.86 31.96" fill="#fff" stroke-width="0"/><path d="M280.83,32.81c-.44-.24-.95-.37-1.53-.37s-1.1.12-1.53.36c-.44.24-.78.62-1.02,1.13-.24.51-.36,1.16-.36,1.96s.12,1.46.36,1.96c.24.51.58.88,1.02,1.13.44.24.95.36,1.53.36s1.09-.12,1.52-.37.78-.62,1.02-1.13c.24-.51.36-1.16.36-1.96s-.12-1.45-.36-1.96c-.24-.51-.58-.88-1.01-1.13ZM280.98,37.45c-.16.38-.38.66-.67.83-.29.17-.62.26-1.01.26s-.73-.08-1.02-.26c-.29-.17-.51-.45-.67-.84-.16-.39-.24-.92-.24-1.57s.08-1.15.24-1.54c.16-.38.38-.66.67-.83.29-.17.62-.25,1.01-.25s.72.09,1.01.26c.29.17.51.45.67.85.16.39.24.92.24,1.57s-.08,1.15-.24,1.53Z" fill="#fff" stroke-width="0"/><polygon points="287.82 37.81 284.36 32.53 283.38 32.53 283.38 39.26 284.29 39.26 284.29 33.98 287.74 39.26 288.73 39.26 288.73 32.53 287.82 32.53 287.82 37.81" fill="#fff" stroke-width="0"/><polygon points="227.13 48.14 223.7 48.14 223.7 45.89 226.64 45.89 226.64 45.09 223.7 45.09 223.7 43 227.08 43 227.08 42.21 222.75 42.21 222.75 48.94 227.13 48.94 227.13 48.14" fill="#fff" stroke-width="0"/><path d="M229.32,48.99c.18,0,.36.01.53.01.82,0,1.49-.12,2.04-.36.54-.24.95-.61,1.22-1.11.27-.5.41-1.15.41-1.95,0-1.17-.29-2.04-.87-2.6-.58-.56-1.45-.84-2.59-.84-.21,0-.42,0-.63.03-.21.02-.43.04-.64.07-.21.03-.41.06-.61.1v6.57c.2.03.4.04.59.06.19.01.37.02.55.03ZM229.15,43.02c.16-.03.32-.05.48-.06.16-.01.32-.02.47-.02.54,0,.99.09,1.35.27.36.18.63.47.81.85.18.39.27.89.27,1.5s-.09,1.13-.27,1.52c-.18.39-.45.67-.82.84-.36.18-.82.27-1.37.27-.17,0-.34,0-.48-.01s-.29-.02-.44-.04v-5.12Z" fill="#fff" stroke-width="0"/><path d="M239.84,46.32v-4.11h-.95v4.21c0,.62-.13,1.08-.4,1.36-.27.29-.68.43-1.24.43s-.97-.14-1.24-.43c-.27-.29-.4-.74-.4-1.36v-4.21h-.96v4.11c0,.62.09,1.12.28,1.52.19.4.47.7.85.89.38.2.88.29,1.47.29s1.09-.1,1.46-.29c.38-.2.66-.49.84-.89.18-.4.27-.91.27-1.52Z" fill="#fff" stroke-width="0"/><path d="M244.24,42.12c-.69,0-1.27.12-1.76.37-.49.25-.86.62-1.12,1.13-.26.51-.39,1.16-.39,1.97,0,.62.07,1.15.22,1.59.15.44.36.79.64,1.06.28.27.61.47,1.01.6.39.13.83.19,1.33.19.28,0,.55-.02.8-.07.26-.04.5-.1.72-.17v-.82c-.25.09-.49.15-.73.19-.23.04-.47.06-.72.06-.48,0-.89-.08-1.22-.25-.34-.16-.59-.44-.77-.82-.18-.39-.26-.91-.26-1.57s.09-1.15.26-1.54.44-.66.78-.84c.34-.17.76-.26,1.26-.26.24,0,.48.01.71.05.23.03.46.08.68.14v-.82c-.23-.06-.46-.11-.7-.14-.24-.03-.49-.05-.74-.05Z" fill="#fff" stroke-width="0"/><path d="M249.71,42.21h-1.37l-2.35,6.73h.96l.7-2.07h2.74l.7,2.07h.97l-2.35-6.73ZM247.92,46.08l1.1-3.24,1.1,3.24h-2.2Z" fill="#fff" stroke-width="0"/><path d="M255.88,42.12c-.69,0-1.27.12-1.76.37-.49.25-.86.62-1.12,1.13-.26.51-.39,1.16-.39,1.97,0,.62.07,1.15.22,1.59.15.44.36.79.64,1.06.28.27.61.47,1.01.6.39.13.83.19,1.33.19.28,0,.55-.02.8-.07.26-.04.5-.1.72-.17v-.82c-.25.09-.49.15-.73.19-.23.04-.47.06-.72.06-.48,0-.89-.08-1.22-.25-.34-.16-.59-.44-.77-.82-.18-.39-.26-.91-.26-1.57s.09-1.15.26-1.54.44-.66.78-.84c.34-.17.76-.26,1.26-.26.24,0,.48.01.71.05.23.03.46.08.68.14v-.82c-.23-.06-.46-.11-.7-.14-.24-.03-.49-.05-.74-.05Z" fill="#fff" stroke-width="0"/><rect x="258.24" y="42.21" width=".97" height="6.73" fill="#fff" stroke-width="0"/><polygon points="263.72 41.64 264.68 40.32 263.67 40.32 262.85 41.64 263.72 41.64" fill="#fff" stroke-width="0"/><path d="M266.19,45.57c0-.8-.12-1.45-.36-1.96-.24-.51-.58-.88-1.01-1.13-.44-.24-.95-.37-1.53-.37s-1.1.12-1.53.36c-.44.24-.78.62-1.02,1.13-.24.51-.36,1.16-.36,1.96s.12,1.46.36,1.96c.24.51.58.88,1.02,1.13.44.24.95.36,1.53.36s1.09-.12,1.52-.37c.44-.24.78-.62,1.02-1.13.24-.51.36-1.16.36-1.96ZM264.97,47.13c-.16.38-.38.66-.67.83-.29.17-.63.26-1.01.26s-.73-.08-1.02-.26c-.29-.17-.51-.45-.67-.84-.16-.39-.24-.92-.24-1.57s.08-1.15.24-1.54c.16-.38.38-.66.67-.83.29-.17.62-.25,1.01-.25s.72.09,1.01.26c.29.17.51.45.67.85.16.39.24.92.24,1.57s-.08,1.15-.24,1.53Z" fill="#fff" stroke-width="0"/><polygon points="271.81 47.49 268.35 42.21 267.36 42.21 267.36 48.94 268.28 48.94 268.28 43.66 271.73 48.94 272.72 48.94 272.72 42.21 271.81 42.21 271.81 47.49" fill="#fff" stroke-width="0"/><path d="M224.57,51.81c-.33,0-.64.01-.94.04-.3.03-.59.07-.88.13v6.63h.97v-2.17c.14.01.28.02.4.03.13,0,.26.01.41.01.96,0,1.68-.2,2.14-.6.47-.4.7-.98.7-1.74,0-.81-.24-1.4-.71-1.78-.47-.37-1.17-.56-2.09-.56ZM225.97,55.35c-.3.25-.77.38-1.43.38-.16,0-.3,0-.43-.01-.13,0-.26-.02-.4-.04v-3.04c.15-.03.29-.05.44-.06.15-.01.31-.02.49-.02.6,0,1.05.13,1.34.38.29.25.44.66.44,1.22s-.15.94-.45,1.19Z" fill="#fff" stroke-width="0"/><path d="M231.81,55.7c.41-.16.73-.39.95-.69.22-.31.32-.69.32-1.15,0-.7-.22-1.22-.68-1.55-.45-.33-1.13-.49-2.04-.49-.24,0-.47,0-.69.02-.22.02-.43.04-.63.07-.2.03-.39.06-.57.1v6.61h.95v-2.72c.14,0,.28.01.41.02.13,0,.28.01.45.01.09,0,.17-.01.26-.02l1.98,2.7h1.08l-2.1-2.84c.1-.03.21-.04.3-.08ZM229.72,55.17c-.09,0-.19-.02-.3-.03v-2.5c.16-.03.31-.05.47-.06.16-.02.34-.03.54-.03.4,0,.73.05.99.13.25.09.44.23.56.42.12.19.18.44.18.75,0,.45-.15.79-.44,1-.29.21-.77.32-1.43.32-.11,0-.21,0-.31,0-.09,0-.18,0-.27-.02Z" fill="#fff" stroke-width="0"/><polygon points="235.47 55.57 238.41 55.57 238.41 54.77 235.47 54.77 235.47 52.68 238.85 52.68 238.85 51.88 234.52 51.88 234.52 58.62 238.9 58.62 238.9 57.82 235.47 57.82 235.47 55.57" fill="#fff" stroke-width="0"/><polygon points="242.33 57.89 240.28 51.88 239.27 51.88 241.59 58.62 243.01 58.62 245.33 51.88 244.38 51.88 242.33 57.89" fill="#fff" stroke-width="0"/><polygon points="247.04 55.57 249.98 55.57 249.98 54.77 247.04 54.77 247.04 52.68 250.43 52.68 250.43 51.88 246.09 51.88 246.09 58.62 250.47 58.62 250.47 57.82 247.04 57.82 247.04 55.57" fill="#fff" stroke-width="0"/><polygon points="255.96 57.17 252.5 51.88 251.52 51.88 251.52 58.62 252.43 58.62 252.43 53.34 255.88 58.62 256.87 58.62 256.87 51.88 255.96 51.88 255.96 57.17" fill="#fff" stroke-width="0"/><path d="M261.3,51.8c-.69,0-1.27.12-1.76.37-.49.25-.86.62-1.12,1.13-.26.51-.39,1.17-.39,1.97,0,.62.07,1.15.22,1.59.15.44.36.79.64,1.06.28.27.61.47,1.01.6.39.13.83.19,1.33.19.28,0,.55-.02.8-.07.26-.04.5-.1.72-.17v-.82c-.25.08-.49.15-.73.18-.23.04-.47.06-.72.06-.48,0-.89-.08-1.22-.25-.34-.16-.59-.44-.77-.83s-.26-.91-.26-1.57.09-1.15.26-1.54c.18-.39.44-.66.78-.84.34-.17.76-.26,1.26-.26.24,0,.48.02.71.05.23.03.46.08.68.14v-.82c-.23-.06-.46-.11-.7-.14-.24-.03-.49-.05-.74-.05Z" fill="#fff" stroke-width="0"/><rect x="263.66" y="51.88" width=".97" height="6.73" fill="#fff" stroke-width="0"/><polygon points="270.1 50 269.08 50 268.27 51.32 269.13 51.32 270.1 50" fill="#fff" stroke-width="0"/><path d="M270.24,52.16c-.44-.24-.95-.37-1.53-.37s-1.1.12-1.53.36c-.44.24-.78.62-1.02,1.13-.24.51-.36,1.16-.36,1.96s.12,1.46.36,1.96c.24.51.58.88,1.02,1.13.44.24.95.36,1.53.36s1.09-.12,1.52-.37c.44-.24.78-.62,1.02-1.13.24-.51.36-1.16.36-1.96s-.12-1.45-.36-1.96c-.24-.51-.58-.88-1.01-1.13ZM270.39,56.81c-.16.38-.38.66-.67.83-.29.17-.63.26-1.01.26s-.73-.09-1.02-.26c-.29-.17-.51-.45-.67-.84-.16-.39-.24-.92-.24-1.57s.08-1.15.24-1.54c.16-.38.38-.66.67-.83.29-.17.62-.25,1.01-.25s.72.09,1.01.26c.29.17.51.45.67.85.16.39.24.91.24,1.57s-.08,1.15-.24,1.53Z" fill="#fff" stroke-width="0"/><polygon points="277.22 57.17 273.77 51.88 272.78 51.88 272.78 58.62 273.69 58.62 273.69 53.34 277.15 58.62 278.13 58.62 278.13 51.88 277.22 51.88 277.22 57.17" fill="#fff" stroke-width="0"/><path d="M171.88,47.2c-.92,1.14-1.92,2.12-2.97,2.91-1.05.79-2.14,1.38-3.25,1.77-1.11.39-2.26.59-3.43.59-2,0-3.85-.53-5.49-1.57-1.65-1.04-3-2.47-4-4.24-1-1.76-1.51-3.78-1.51-6.01s.49-4.26,1.45-6.05c.96-1.78,2.27-3.21,3.9-4.23,1.63-1.02,3.51-1.54,5.6-1.54,1.12,0,2.31.24,3.53.72,1.23.48,2.4,1.15,3.49,1.98,1.09.83,2,1.76,2.69,2.76l.21.3,4.18-5.14-.1-.17c-1.36-2.23-3.38-4.01-5.99-5.31-2.6-1.29-5.52-1.94-8.68-1.94s-6.3.83-8.91,2.46c-2.6,1.63-4.69,3.88-6.21,6.68-1.52,2.8-2.28,5.99-2.28,9.47s.77,6.66,2.28,9.47c1.51,2.81,3.6,5.05,6.21,6.69,2.61,1.63,5.6,2.46,8.91,2.46,2.89,0,5.72-.66,8.41-1.98,2.69-1.31,4.8-3.02,6.25-5.06l.12-.17-4.17-5.13-.21.26Z" fill="#fff" stroke-width="0"/><path d="M211.04,22.79h-7.18c-.1,0-.18.08-.18.18v4.04c0,.17-.21.24-.32.11-.55-.7-1.18-1.35-1.88-1.94-1.16-.98-2.54-1.75-4.08-2.3s-3.27-.82-5.13-.82c-3.13,0-5.99.8-8.51,2.39-2.52,1.59-4.54,3.8-6.01,6.59-1.47,2.78-2.21,6-2.21,9.56s.73,6.73,2.18,9.53c1.45,2.8,3.41,5.05,5.83,6.68,2.43,1.64,5.16,2.46,8.11,2.46,1.72,0,3.39-.28,4.96-.82,1.56-.54,3.01-1.28,4.3-2.18.93-.65,1.75-1.37,2.45-2.16.11-.12.31-.05.31.12v4.2c0,.1.08.18.18.18h7.18c.1,0,.18-.08.18-.18V22.97c0-.1-.08-.18-.18-.18ZM202.61,46.68c-.89,1.76-2.14,3.16-3.7,4.16-1.56,1-3.38,1.5-5.43,1.5s-3.79-.5-5.32-1.5c-1.54-1-2.78-2.4-3.67-4.16-.89-1.77-1.35-3.81-1.35-6.09s.45-4.24,1.35-5.99c.89-1.74,2.12-3.13,3.67-4.13,1.54-1,3.33-1.5,5.32-1.5s3.87.51,5.43,1.5c1.56,1,2.81,2.39,3.7,4.12.89,1.74,1.35,3.76,1.35,5.99s-.45,4.32-1.35,6.09Z" fill="#fff" stroke-width="0"/><path d="M141.93,22.79h-6.65c-.24,0-.44.2-.44.44v21.38c0,1.44-.34,2.74-1.01,3.89-.67,1.15-1.58,2.07-2.73,2.76-1.15.69-2.43,1.03-3.84,1.03s-2.62-.34-3.74-1.03c-1.12-.69-2-1.61-2.66-2.76-.65-1.15-.98-2.45-.98-3.89v-21.38c0-.24-.2-.44-.44-.44h-6.91c-.24,0-.44.2-.44.44v21.84c0,2.72.65,5.15,1.96,7.3,1.31,2.15,3.1,3.83,5.39,5.06,2.29,1.22,4.89,1.83,7.82,1.83s5.49-.61,7.79-1.83c2.3-1.22,4.1-2.91,5.39-5.06,1.29-2.15,1.93-4.58,1.93-7.3v-21.84c0-.24-.2-.44-.44-.44Z" fill="#fff" stroke-width="0"/><path d="M109.26,22.79h-23.37c-.23,0-.41.19-.41.41v34.98c0,.23.19.41.41.41h6.85c.23,0,.41-.19.41-.41v-13.39c0-.23.19-.41.41-.41h13.55c.23,0,.41-.19.41-.41v-5.77c0-.23-.19-.41-.41-.41h-13.55c-.23,0-.41-.19-.41-.41v-7.25c0-.23.19-.41.41-.41h15.69c.23,0,.41-.19.41-.41v-6.08c0-.23-.19-.41-.41-.41Z" fill="#fff" stroke-width="0"/><path d="M27.35,18.82c-8.18,0-12.46,6.98-12.46,13.87,0,11.18,5.48,17.58,11.42,21.24,2.61-1.24,4.86-2.76,6.71-4.55,1.14-1.1,2.13-2.3,2.97-3.6-2.14-3.66-3.22-7.99-3.22-12.93,0-4.13,1.07-7.68,3.12-10.39-.07-.07-.14-.14-.21-.22-2.18-2.21-5.14-3.43-8.34-3.43Z" fill="#fff" stroke-width="0"/><path d="M43.05,57.77c-3.41,1.32-9.29,1.32-12.57,0-1.28-.51-2.74-1.19-4.24-2.08-5.05,2.25-11.31,3.55-18.58,3.86,6.75,8.79,17.36,14.45,29.3,14.45s22.54-5.67,29.3-14.45c-7.35-.3-13.66-1.62-18.74-3.9-1.58.91-3.11,1.6-4.46,2.12Z" fill="#fff" stroke-width="0"/><path d="M36.95.1C16.54.1,0,16.64,0,37.05c0,7.78,2.41,15,6.52,20.96,7.06-.2,13.16-1.31,18.1-3.33-5.58-3.76-11.3-10.44-11.3-21.98,0-10.13,7.06-15.44,14.02-15.44,3.4,0,6.93,1.3,9.56,4.02.04-.04.08-.08.12-.12,2.48-2.51,5.83-3.9,9.45-3.9,6.97,0,14.02,5.3,14.02,15.44,0,11.56-5.73,18.21-11.37,21.95,4.97,2.04,11.12,3.17,18.25,3.36,4.11-5.96,6.53-13.18,6.53-20.96C73.9,16.64,57.35.1,36.95.1Z" fill="#fff" stroke-width="0"/><path d="M34.33,32.86c0,4.3.86,8.1,2.58,11.36,1.71-3.26,2.58-7.06,2.58-11.36,0-3.6-.87-6.7-2.54-9.09-1.77,2.6-2.61,5.9-2.61,9.09Z" fill="#fff" stroke-width="0"/><path d="M58.93,32.7c0-6.89-4.28-13.87-12.46-13.87-3.73,0-6.55,1.45-8.53,3.67,1.89,2.5,3.11,5.94,3.11,10.37,0,4.94-1.08,9.27-3.22,12.93.84,1.3,1.83,2.5,2.97,3.6,1.83,1.76,4.04,3.26,6.6,4.5,5.56-3.42,11.53-9.75,11.53-21.19Z" fill="#fff" stroke-width="0"/><path d="M36.91,47.23c-.82,1.17-1.75,2.27-2.81,3.28-1.74,1.68-3.8,3.13-6.17,4.36,1.05.56,2.1,1.04,3.12,1.45,2.87,1.16,8.43,1.15,11.43,0,1.01-.39,2.13-.88,3.29-1.5-2.32-1.21-4.35-2.65-6.06-4.3-1.05-1.02-1.99-2.11-2.81-3.28Z" fill="#fff" stroke-width="0"/><path d="M49.12,54.65c5.64-3.74,11.37-10.39,11.37-21.95,0-10.13-7.06-15.44-14.02-15.44-3.62,0-6.97,1.38-9.45,3.9-.04.04-.08.08-.12.12-2.63-2.72-6.16-4.02-9.56-4.02-6.97,0-14.02,5.3-14.02,15.44,0,11.54,5.72,18.22,11.3,21.98-4.94,2.02-11.04,3.13-18.1,3.33.36.52.74,1.03,1.12,1.54,7.28-.31,13.53-1.61,18.58-3.86,1.51.88,2.96,1.56,4.24,2.08,3.28,1.32,9.16,1.32,12.57,0,1.34-.52,2.87-1.21,4.46-2.12,5.08,2.28,11.39,3.6,18.74,3.9.39-.5.76-1.02,1.12-1.54-7.13-.19-13.28-1.32-18.25-3.36ZM36.94,23.77c1.67,2.39,2.54,5.49,2.54,9.09,0,4.3-.86,8.1-2.58,11.36-1.71-3.26-2.58-7.05-2.58-11.36,0-3.19.84-6.49,2.61-9.09ZM14.89,32.7c0-6.89,4.28-13.87,12.46-13.87,3.2,0,6.16,1.22,8.34,3.43.07.07.14.14.21.22-2.05,2.71-3.12,6.26-3.12,10.39,0,4.94,1.08,9.27,3.22,12.93-.84,1.3-1.83,2.5-2.97,3.6-1.85,1.79-4.1,3.31-6.71,4.55-5.94-3.66-11.42-10.06-11.42-21.24ZM42.48,56.31c-3,1.16-8.55,1.16-11.43,0-1.02-.41-2.07-.89-3.12-1.45,2.36-1.22,4.43-2.68,6.17-4.36,1.05-1.02,1.99-2.11,2.81-3.28.82,1.17,1.75,2.27,2.81,3.28,1.72,1.65,3.74,3.09,6.06,4.3-1.17.62-2.29,1.11-3.29,1.5ZM47.4,53.88c-2.57-1.23-4.78-2.74-6.6-4.5-1.14-1.1-2.13-2.3-2.97-3.6,2.14-3.66,3.22-7.99,3.22-12.93,0-4.43-1.21-7.87-3.11-10.37,1.98-2.21,4.8-3.67,8.53-3.67,8.18,0,12.46,6.98,12.46,13.87,0,11.44-5.97,17.77-11.53,21.19Z" fill="#10ae96" stroke-width="0"/></svg>